<svg width="178" height="62" viewBox="0 0 178 62" fill="none" xmlns="http://www.w3.org/2000/svg">
<path d="M0.5 0.5H177.5V61.5H0.5V0.5Z" stroke="white"/>
<path d="M34.168 38C33.772 38 33.406 37.904 33.07 37.712C32.746 37.52 32.488 37.262 32.296 36.938C32.104 36.602 32.008 36.236 32.008 35.84V27.2C32.008 26.804 32.104 26.444 32.296 26.12C32.488 25.784 32.746 25.52 33.07 25.328C33.406 25.136 33.772 25.04 34.168 25.04H44.932V26.498H34.168C33.976 26.498 33.808 26.57 33.664 26.714C33.532 26.846 33.466 27.008 33.466 27.2V35.84C33.466 36.032 33.532 36.2 33.664 36.344C33.808 36.476 33.976 36.542 34.168 36.542H44.932V38H34.168ZM48.8968 38C48.5008 38 48.1348 37.904 47.7988 37.712C47.4748 37.508 47.2108 37.244 47.0068 36.92C46.8148 36.584 46.7188 36.218 46.7188 35.822V29.738C46.7188 29.342 46.8148 28.982 47.0068 28.658C47.2108 28.322 47.4748 28.058 47.7988 27.866C48.1348 27.662 48.5008 27.56 48.8968 27.56H55.1608C55.5688 27.56 55.9348 27.662 56.2588 27.866C56.5948 28.058 56.8588 28.322 57.0508 28.658C57.2548 28.982 57.3568 29.342 57.3568 29.738V35.822C57.3568 36.218 57.2548 36.584 57.0508 36.92C56.8588 37.244 56.5948 37.508 56.2588 37.712C55.9348 37.904 55.5688 38 55.1608 38H48.8968ZM48.8968 36.524H55.1608C55.3528 36.524 55.5148 36.458 55.6468 36.326C55.7908 36.182 55.8628 36.014 55.8628 35.822V29.738C55.8628 29.546 55.7908 29.384 55.6468 29.252C55.5148 29.108 55.3528 29.036 55.1608 29.036H48.8968C48.7048 29.036 48.5368 29.108 48.3928 29.252C48.2608 29.384 48.1948 29.546 48.1948 29.738V35.822C48.1948 36.014 48.2608 36.182 48.3928 36.326C48.5368 36.458 48.7048 36.524 48.8968 36.524ZM58.972 38V27.56H67.432C67.828 27.56 68.188 27.662 68.512 27.866C68.848 28.058 69.112 28.322 69.304 28.658C69.508 28.982 69.61 29.342 69.61 29.738V38H68.134V29.738C68.134 29.546 68.062 29.384 67.918 29.252C67.786 29.108 67.624 29.036 67.432 29.036H61.168C60.976 29.036 60.808 29.108 60.664 29.252C60.52 29.384 60.448 29.546 60.448 29.738V38H58.972ZM73.6652 38C73.2572 38 72.8852 37.904 72.5492 37.712C72.2252 37.508 71.9672 37.244 71.7752 36.92C71.5832 36.584 71.4872 36.218 71.4872 35.822V24.14H72.9632V27.56H77.4812V29.036H72.9632V35.822C72.9632 36.014 73.0292 36.182 73.1612 36.326C73.3052 36.458 73.4732 36.524 73.6652 36.524H77.4812V38H73.6652ZM81.03 38C80.634 38 80.268 37.904 79.932 37.712C79.608 37.508 79.344 37.244 79.14 36.92C78.948 36.584 78.852 36.218 78.852 35.822V32.042H87.996V29.738C87.996 29.546 87.924 29.384 87.78 29.252C87.648 29.108 87.486 29.036 87.294 29.036H78.852V27.56H87.294C87.702 27.56 88.068 27.662 88.392 27.866C88.728 28.058 88.992 28.322 89.184 28.658C89.388 28.982 89.49 29.342 89.49 29.738V38H81.03ZM81.03 36.524H87.996V33.518H80.328V35.822C80.328 36.014 80.394 36.182 80.526 36.326C80.67 36.458 80.838 36.524 81.03 36.524ZM93.3343 38C92.9383 38 92.5723 37.904 92.2363 37.712C91.9123 37.508 91.6483 37.244 91.4443 36.92C91.2523 36.584 91.1563 36.218 91.1563 35.822V29.738C91.1563 29.342 91.2523 28.982 91.4443 28.658C91.6483 28.322 91.9123 28.058 92.2363 27.866C92.5723 27.662 92.9383 27.56 93.3343 27.56H101.758V29.036H93.3343C93.1423 29.036 92.9743 29.108 92.8303 29.252C92.6983 29.384 92.6323 29.546 92.6323 29.738V35.822C92.6323 36.014 92.6983 36.182 92.8303 36.326C92.9743 36.458 93.1423 36.524 93.3343 36.524H101.794V38H93.3343ZM105.429 38C105.021 38 104.649 37.904 104.313 37.712C103.989 37.508 103.731 37.244 103.539 36.92C103.347 36.584 103.251 36.218 103.251 35.822V24.14H104.727V27.56H109.245V29.036H104.727V35.822C104.727 36.014 104.793 36.182 104.925 36.326C105.069 36.458 105.237 36.524 105.429 36.524H109.245V38H105.429ZM117.716 38C117.32 38 116.954 37.904 116.618 37.712C116.294 37.52 116.036 37.262 115.844 36.938C115.652 36.602 115.556 36.236 115.556 35.84V25.04H117.014V35.84C117.014 36.032 117.08 36.2 117.212 36.344C117.356 36.476 117.524 36.542 117.716 36.542H126.356C126.548 36.542 126.71 36.476 126.842 36.344C126.986 36.2 127.058 36.032 127.058 35.84V25.04H128.516V35.84C128.516 36.236 128.42 36.602 128.228 36.938C128.036 37.262 127.772 37.52 127.436 37.712C127.112 37.904 126.752 38 126.356 38H117.716ZM132.532 38C132.136 38 131.77 37.904 131.434 37.712C131.11 37.508 130.846 37.244 130.642 36.92C130.45 36.584 130.354 36.218 130.354 35.822V35.678H131.83V35.822C131.83 36.014 131.896 36.182 132.028 36.326C132.172 36.458 132.34 36.524 132.532 36.524H138.796C138.988 36.524 139.15 36.458 139.282 36.326C139.426 36.182 139.498 36.014 139.498 35.822V34.22C139.498 34.028 139.426 33.866 139.282 33.734C139.15 33.59 138.988 33.518 138.796 33.518H132.532C132.136 33.518 131.77 33.422 131.434 33.23C131.11 33.026 130.846 32.762 130.642 32.438C130.45 32.102 130.354 31.736 130.354 31.34V29.738C130.354 29.342 130.45 28.982 130.642 28.658C130.846 28.322 131.11 28.058 131.434 27.866C131.77 27.662 132.136 27.56 132.532 27.56H138.796C139.204 27.56 139.57 27.662 139.894 27.866C140.23 28.058 140.494 28.322 140.686 28.658C140.89 28.982 140.992 29.342 140.992 29.738V29.882H139.498V29.738C139.498 29.546 139.426 29.384 139.282 29.252C139.15 29.108 138.988 29.036 138.796 29.036H132.532C132.34 29.036 132.172 29.108 132.028 29.252C131.896 29.384 131.83 29.546 131.83 29.738V31.34C131.83 31.532 131.896 31.7 132.028 31.844C132.172 31.976 132.34 32.042 132.532 32.042H138.796C139.204 32.042 139.57 32.144 139.894 32.348C140.23 32.54 140.494 32.804 140.686 33.14C140.89 33.464 140.992 33.824 140.992 34.22V35.822C140.992 36.218 140.89 36.584 140.686 36.92C140.494 37.244 140.23 37.508 139.894 37.712C139.57 37.904 139.204 38 138.796 38H132.532Z" fill="white"/>
</svg>
