<svg width="146" height="14" viewBox="0 0 146 14" fill="none" xmlns="http://www.w3.org/2000/svg">
<path d="M8.136 14L0.63 1.04H2.34L8.982 12.578L15.606 1.04H17.316L9.828 14H8.136ZM18.9887 14V3.56H20.4647V14H18.9887ZM18.9887 1.616V0.139999H20.4647V1.616H18.9887ZM24.8929 14C24.4969 14 24.1309 13.904 23.7949 13.712C23.4709 13.508 23.2069 13.244 23.0029 12.92C22.8109 12.584 22.7149 12.218 22.7149 11.822V5.738C22.7149 5.342 22.8109 4.982 23.0029 4.658C23.2069 4.322 23.4709 4.058 23.7949 3.866C24.1309 3.662 24.4969 3.56 24.8929 3.56H31.1569C31.5649 3.56 31.9309 3.662 32.2549 3.866C32.5909 4.058 32.8549 4.322 33.0469 4.658C33.2509 4.982 33.3529 5.342 33.3529 5.738V9.518H24.1909V11.822C24.1909 12.014 24.2569 12.182 24.3889 12.326C24.5329 12.458 24.7009 12.524 24.8929 12.524H33.3529V14H24.8929ZM24.1909 8.042H31.8589V5.738C31.8589 5.546 31.7869 5.384 31.6429 5.252C31.5109 5.108 31.3489 5.036 31.1569 5.036H24.8929C24.7009 5.036 24.5329 5.108 24.3889 5.252C24.2569 5.384 24.1909 5.546 24.1909 5.738V8.042ZM38.4488 14L34.3448 3.56H35.9288L39.0968 11.336L42.4628 3.56H44.4068L47.9888 11.318L50.9408 3.56H52.5428L48.6008 14H47.3228L43.4348 5.378L39.7448 14H38.4488ZM60.9983 14C60.6023 14 60.2363 13.904 59.9003 13.712C59.5763 13.508 59.3123 13.244 59.1083 12.92C58.9163 12.584 58.8203 12.218 58.8203 11.822V5.738C58.8203 5.342 58.9163 4.982 59.1083 4.658C59.3123 4.322 59.5763 4.058 59.9003 3.866C60.2363 3.662 60.6023 3.56 60.9983 3.56H67.2623C67.6703 3.56 68.0363 3.662 68.3603 3.866C68.6963 4.058 68.9603 4.322 69.1523 4.658C69.3563 4.982 69.4583 5.342 69.4583 5.738V11.822C69.4583 12.218 69.3563 12.584 69.1523 12.92C68.9603 13.244 68.6963 13.508 68.3603 13.712C68.0363 13.904 67.6703 14 67.2623 14H60.9983ZM60.9983 12.524H67.2623C67.4543 12.524 67.6163 12.458 67.7483 12.326C67.8923 12.182 67.9643 12.014 67.9643 11.822V5.738C67.9643 5.546 67.8923 5.384 67.7483 5.252C67.6163 5.108 67.4543 5.036 67.2623 5.036H60.9983C60.8063 5.036 60.6383 5.108 60.4943 5.252C60.3623 5.384 60.2963 5.546 60.2963 5.738V11.822C60.2963 12.014 60.3623 12.182 60.4943 12.326C60.6383 12.458 60.8063 12.524 60.9983 12.524ZM73.0754 14C72.6794 14 72.3134 13.904 71.9774 13.712C71.6534 13.508 71.3894 13.244 71.1854 12.92C70.9934 12.584 70.8974 12.218 70.8974 11.822V3.56H72.3734V11.822C72.3734 12.014 72.4394 12.182 72.5714 12.326C72.7154 12.458 72.8834 12.524 73.0754 12.524H79.3394C79.5314 12.524 79.6994 12.458 79.8434 12.326C79.9874 12.182 80.0594 12.014 80.0594 11.822V3.56H81.5354V11.822C81.5354 12.218 81.4334 12.584 81.2294 12.92C81.0374 13.244 80.7734 13.508 80.4374 13.712C80.1134 13.904 79.7474 14 79.3394 14H73.0754ZM83.395 14V5.738C83.395 5.342 83.491 4.982 83.683 4.658C83.887 4.322 84.151 4.058 84.475 3.866C84.811 3.662 85.177 3.56 85.573 3.56H91.441V5.036H85.573C85.381 5.036 85.213 5.108 85.069 5.252C84.937 5.384 84.871 5.546 84.871 5.738V14H83.395ZM99.7062 14C99.2982 14 98.9262 13.904 98.5902 13.712C98.2662 13.508 98.0082 13.244 97.8162 12.92C97.6242 12.584 97.5282 12.218 97.5282 11.822V0.139999H99.0042V3.56H103.522V5.036H99.0042V11.822C99.0042 12.014 99.0702 12.182 99.2022 12.326C99.3462 12.458 99.5142 12.524 99.7062 12.524H103.522V14H99.7062ZM107.053 14C106.657 14 106.291 13.904 105.955 13.712C105.631 13.508 105.367 13.244 105.163 12.92C104.971 12.584 104.875 12.218 104.875 11.822V5.738C104.875 5.342 104.971 4.982 105.163 4.658C105.367 4.322 105.631 4.058 105.955 3.866C106.291 3.662 106.657 3.56 107.053 3.56H113.317C113.725 3.56 114.091 3.662 114.415 3.866C114.751 4.058 115.015 4.322 115.207 4.658C115.411 4.982 115.513 5.342 115.513 5.738V9.518H106.351V11.822C106.351 12.014 106.417 12.182 106.549 12.326C106.693 12.458 106.861 12.524 107.053 12.524H115.513V14H107.053ZM106.351 8.042H114.019V5.738C114.019 5.546 113.947 5.384 113.803 5.252C113.671 5.108 113.509 5.036 113.317 5.036H107.053C106.861 5.036 106.693 5.108 106.549 5.252C106.417 5.384 106.351 5.546 106.351 5.738V8.042ZM119.534 14C119.138 14 118.772 13.904 118.436 13.712C118.112 13.508 117.848 13.244 117.644 12.92C117.452 12.584 117.356 12.218 117.356 11.822V8.042H126.5V5.738C126.5 5.546 126.428 5.384 126.284 5.252C126.152 5.108 125.99 5.036 125.798 5.036H117.356V3.56H125.798C126.206 3.56 126.572 3.662 126.896 3.866C127.232 4.058 127.496 4.322 127.688 4.658C127.892 4.982 127.994 5.342 127.994 5.738V14H119.534ZM119.534 12.524H126.5V9.518H118.832V11.822C118.832 12.014 118.898 12.182 119.03 12.326C119.174 12.458 119.342 12.524 119.534 12.524ZM129.538 14V3.56H143.326C143.734 3.56 144.1 3.662 144.424 3.866C144.76 4.058 145.024 4.322 145.216 4.658C145.408 4.982 145.504 5.342 145.504 5.738V14H144.046V5.738C144.046 5.546 143.974 5.384 143.83 5.252C143.686 5.108 143.518 5.036 143.326 5.036H138.988C138.796 5.036 138.628 5.108 138.484 5.252C138.352 5.384 138.286 5.546 138.286 5.738V14H136.792V5.738C136.792 5.546 136.72 5.384 136.576 5.252C136.444 5.108 136.282 5.036 136.09 5.036H131.734C131.542 5.036 131.374 5.108 131.23 5.252C131.098 5.384 131.032 5.546 131.032 5.738V14H129.538Z" fill="white"/>
</svg>
